<svg width="545" height="291" viewBox="0 0 545 291" fill="none" xmlns="http://www.w3.org/2000/svg">
<ellipse cx="52" cy="181.5" rx="52" ry="55.5" fill="#C8C8C8"/>
<ellipse cx="493" cy="181.5" rx="52" ry="55.5" fill="#C8C8C8"/>
<path d="M498.5 145C502.855 190.291 492.5 244 465 264.5C422.249 296.368 390.5 290 269.999 290C154 290 129.5 298.42 75.9997 264.5C34.391 238.119 47.9997 187 47.9998 145C59 67 148.497 0 269.999 0C391.502 0 491 67 498.5 145Z" fill="#D6D8DA"/>
<rect x="92" y="117" width="367" height="132" rx="57" fill="#3A3A3A"/>
<mask id="mask0_423_503" style="mask-type:alpha" maskUnits="userSpaceOnUse" x="92" y="117" width="367" height="132">
<rect x="92" y="117" width="367" height="132" rx="57" fill="#3A3A3A"/>
</mask>
<g mask="url(#mask0_423_503)">
<ellipse cx="172" cy="139" rx="125" ry="122" fill="#212121" fill-opacity="0.46"/>
</g>
<rect x="145" y="143" width="32" height="76" rx="16" fill="#7D8AFF"/>
<rect x="368" y="143" width="32" height="76" rx="16" fill="#7D8AFF"/>
</svg>
